<svg xmlns="http://www.w3.org/2000/svg" viewBox="0 0 512 512">
  <rect width="512" height="512" rx="112" fill="#2a6fdb"/>
<g transform="translate(185.6 80) scale(3.52)">
    <clipPath id="pinclip"><path d="M20,4 C27,4 27,14 24,20 C22,24 22,26 24,30 C30,38 33,58 30,76 C29,88 25,96 20,96 C15,96 11,88 10,76 C7,58 10,38 16,30 C18,26 18,24 16,20 C13,14 13,4 20,4 Z"/></clipPath>
    <path d="M20,4 C27,4 27,14 24,20 C22,24 22,26 24,30 C30,38 33,58 30,76 C29,88 25,96 20,96 C15,96 11,88 10,76 C7,58 10,38 16,30 C18,26 18,24 16,20 C13,14 13,4 20,4 Z" fill="#ffffff"/>
    <g clip-path="url(#pinclip)">
      <rect x="10" y="16.5" width="20" height="3.5" fill="#d94a34"/>
      <rect x="10" y="23" width="20" height="3.5" fill="#d94a34"/>
    </g>
  </g>
</svg>
